<?xml version="1.0" encoding="UTF-8"?>
<!-- Created with Inkscape (http://www.inkscape.org/) -->
<svg width="108.35" height="108.35" version="1.1" viewBox="0 0 108.35 108.35" xml:space="preserve" xmlns="http://www.w3.org/2000/svg"><defs><clipPath id="clipPath108755"><path d="m6.38 40.732c0-18.948 15.368-34.316 34.316-34.316 18.954 0 34.317 15.368 34.317 34.316 0 18.953-15.363 34.316-34.317 34.316-18.948 0-34.316-15.363-34.316-34.316"/></clipPath><clipPath id="clipPath108763"><path d="m-268.14 87.211h369v-100h-369z"/></clipPath><clipPath id="clipPath108767"><path d="m-15.496 3.231h114.71v71.23h-114.71z"/></clipPath><clipPath id="clipPath108771"><path d="m-268.14 87.211h369v-100h-369z"/></clipPath><clipPath id="clipPath108775"><path d="m-268.14 87.211h369v-100h-369z"/></clipPath><clipPath id="clipPath108779"><path d="m-10.286 63.6h104.29v-57.131h-104.29z"/></clipPath><clipPath id="clipPath108783"><path d="m-268.14 87.211h369v-100h-369z"/></clipPath><clipPath id="clipPath108787"><path d="m-268.14 87.211h369v-100h-369z"/></clipPath><clipPath id="clipPath108791"><path d="m-10.286 40.93h104.29v-34.461h-104.29z"/></clipPath><clipPath id="clipPath108795"><path d="m-268.14 87.211h369v-100h-369z"/></clipPath><clipPath id="clipPath108799"><path d="m-268.14 87.211h369v-100h-369z"/></clipPath><clipPath id="clipPath108803"><path d="m-10.286 56.422h104.29v-49.953h-104.29z"/></clipPath><clipPath id="clipPath108903"><path d="M 0,81.261 H 81.261 V 0 H 0 Z"/></clipPath></defs><g transform="matrix(1.3333 0 0 -1.3333 0 108.35)"><g clip-path="url(#clipPath108755)"><g clip-path="url(#clipPath108763)"><g clip-path="url(#clipPath108767)"><g clip-path="url(#clipPath108771)"><g clip-path="url(#clipPath108775)"><g clip-path="url(#clipPath108779)" opacity=".39999"><g transform="translate(-10.286 6.4689)"><path d="m0 0v1.206l0.211 0.038 0.207 0.038 0.211 0.041 0.207 0.042 0.211 0.041 0.207 0.041 0.211 0.045 0.207 0.045 0.211 0.048 0.207 0.048 0.211 0.049 0.207 0.052 0.211 0.051 0.207 0.052 0.211 0.055 0.207 0.055 0.211 0.055 0.207 0.059 0.211 0.062 0.207 0.062 0.211 0.062 0.207 0.065 0.211 0.066 0.207 0.065 0.211 0.069 0.207 0.073 0.211 0.072 0.207 0.073 0.211 0.076 0.207 0.078 0.211 0.08 0.207 0.082 0.211 0.083 0.207 0.082 0.211 0.087 0.207 0.09 0.211 0.089 0.207 0.094 0.211 0.096 0.207 0.096 0.211 0.1 0.207 0.1 0.211 0.103 0.418 0.21 0.207 0.111 0.211 0.113 0.207 0.114 0.211 0.114 0.207 0.121 0.211 0.121 0.207 0.123 0.211 0.125 0.207 0.13 0.211 0.132 0.207 0.13 0.211 0.138 0.207 0.139 0.211 0.141 0.207 0.141 0.21 0.148 0.207 0.148 0.211 0.152 0.207 0.155 0.211 0.155 0.207 0.162 0.211 0.162 0.207 0.165 0.211 0.169 0.207 0.173 0.211 0.172 0.207 0.175 0.211 0.183 0.207 0.183 0.211 0.182 0.207 0.19 0.211 0.193 0.207 0.193 0.211 0.2 0.207 0.2 0.211 0.203 0.207 0.207 0.211 0.21 0.207 0.214 0.211 0.217 0.207 0.217 0.211 0.224 0.207 0.224 0.211 0.231 0.207 0.231 0.211 0.234 0.207 0.238 0.211 0.241 0.207 0.246 0.211 0.248 0.207 0.251 0.211 0.251 0.207 0.259 0.211 0.262 0.207 0.262 0.211 0.266 0.207 0.271 0.211 0.273 0.207 0.275 0.211 0.28 0.207 0.282 0.211 0.283 0.207 0.289 0.211 0.29 0.207 0.297 0.211 0.295 0.207 0.3 0.211 0.304 0.207 0.307 0.211 0.309 0.207 0.311 0.211 0.313 0.207 0.321 0.211 0.321 0.207 0.32 0.211 0.327 0.207 0.327 0.21 0.331 0.208 0.335 0.21 0.334 0.208 0.341 0.21 0.342 0.207 0.34 0.211 0.349 0.207 0.348 0.211 0.348 0.207 0.355 0.211 0.352 0.207 0.358 0.211 0.358 0.207 0.362 0.211 0.362 0.207 0.366 0.211 0.365 0.207 0.369 0.211 0.369 0.207 0.371 0.211 0.372 0.207 0.376 0.211 0.373 0.207 0.379 0.211 0.375 0.207 0.379 0.211 0.383 0.207 0.379 0.211 0.383 0.207 0.383 0.211 0.382 0.207 0.386 0.211 0.382 0.207 0.386 0.211 0.386 0.207 0.386 0.211 0.386 0.207 0.386 0.211 0.386 0.207 0.386 0.211 0.382 0.207 0.387 0.211 0.385 0.207 0.383 0.211 0.383 0.207 0.386 0.211 0.379 0.207 0.382 0.211 0.38 0.207 0.379 0.211 0.378 0.207 0.376 0.211 0.376 0.207 0.372 0.211 0.373 0.207 0.369 0.211 0.368 0.207 0.366 0.211 0.361 0.207 0.362 0.211 0.362 0.207 0.355 0.211 0.355 0.207 0.351 0.211 0.349 0.207 0.347 0.21 0.342 0.207 0.341 0.211 0.335 0.207 0.334 0.211 0.331 0.207 0.327 0.211 0.32 0.207 0.321 0.211 0.317 0.207 0.31 0.211 0.307 0.207 0.303 0.211 0.3 0.207 0.292 0.211 0.294 0.207 0.283 0.211 0.282 0.207 0.276 0.211 0.272 0.207 0.265 0.211 0.262 0.207 0.259 0.211 0.251 0.207 0.245 0.211 0.241 0.207 0.234 0.211 0.231 0.207 0.225 0.211 0.217 0.207 0.213 0.211 0.207 0.207 0.2 0.211 0.197 0.207 0.189 0.211 0.183 0.207 0.175 0.211 0.169 0.207 0.166 0.211 0.159 0.207 0.148 0.211 0.145 0.207 0.141 0.211 0.13 0.207 0.125 0.211 0.117 0.207 0.114 0.211 0.103 0.207 0.096 0.211 0.094 0.207 0.082 0.211 0.079 0.207 0.069 0.211 0.066 0.207 0.055 0.211 0.048 0.207 0.045 0.211 0.035 0.207 0.027 0.211 0.02 0.207 0.015 0.211 7e-3h0.207l0.21-7e-3 0.208-0.015 0.21-0.02 0.208-0.027 0.21-0.035 0.207-0.045 0.211-0.048 0.207-0.055 0.211-0.066 0.207-0.069 0.211-0.079 0.207-0.082 0.211-0.094 0.207-0.096 0.211-0.103 0.207-0.114 0.211-0.117 0.207-0.125 0.211-0.13 0.207-0.141 0.211-0.145 0.207-0.148 0.211-0.159 0.207-0.166 0.211-0.169 0.207-0.175 0.211-0.183 0.207-0.189 0.211-0.197 0.207-0.2 0.211-0.207 0.207-0.213 0.211-0.217 0.207-0.225 0.211-0.231 0.207-0.234 0.211-0.241 0.207-0.245 0.211-0.251 0.207-0.259 0.211-0.262 0.207-0.265 0.211-0.272 0.207-0.276 0.211-0.282 0.207-0.283 0.211-0.294 0.207-0.292 0.211-0.3 0.207-0.303 0.211-0.307 0.207-0.31 0.211-0.317 0.207-0.321 0.211-0.32 0.207-0.327 0.211-0.331 0.207-0.334 0.211-0.335 0.207-0.341 0.211-0.342 0.207-0.347 0.211-0.349 0.207-0.351 0.211-0.355 0.207-0.355 0.21-0.362 0.207-0.362 0.211-0.361 0.207-0.366 0.211-0.368 0.207-0.369 0.211-0.373 0.207-0.372 0.211-0.376 0.207-0.376 0.211-0.378 0.207-0.379 0.211-0.38 0.207-0.382 0.211-0.379 0.207-0.386 0.211-0.383 0.207-0.383 0.211-0.385 0.207-0.387 0.211-0.382 0.207-0.386 0.211-0.386 0.207-0.386 0.211-0.386 0.207-0.386 0.211-0.386 0.207-0.386 0.211-0.382 0.207-0.386 0.211-0.382 0.207-0.383 0.211-0.383 0.207-0.379 0.211-0.383 0.207-0.379 0.211-0.375 0.207-0.379 0.211-0.373 0.207-0.376 0.211-0.372 0.207-0.371 0.211-0.369 0.207-0.369 0.211-0.365 0.207-0.366 0.211-0.362 0.207-0.362 0.211-0.358 0.207-0.358 0.211-0.352 0.207-0.355 0.211-0.348 0.207-0.348 0.211-0.349 0.207-0.34 0.211-0.342 0.207-0.341 0.211-0.334 0.207-0.335 0.211-0.331 0.207-0.327 0.21-0.327 0.208-0.32 0.21-0.321 0.208-0.321 0.21-0.313 0.207-0.311 0.211-0.309 0.207-0.307 0.211-0.304 0.207-0.3 0.211-0.295 0.207-0.297 0.211-0.29 0.207-0.289 0.211-0.283 0.207-0.282 0.211-0.28 0.207-0.275 0.211-0.273 0.207-0.271 0.211-0.266 0.207-0.262 0.211-0.262 0.207-0.259 0.211-0.251 0.207-0.251 0.211-0.248 0.207-0.246 0.211-0.241 0.207-0.238 0.211-0.234 0.207-0.231 0.211-0.231 0.207-0.224 0.211-0.224 0.207-0.217 0.211-0.217 0.207-0.214 0.211-0.21 0.207-0.207 0.211-0.203 0.207-0.2 0.211-0.2 0.207-0.193 0.211-0.193 0.207-0.19 0.211-0.182 0.207-0.183 0.211-0.183 0.207-0.175 0.211-0.172 0.207-0.173 0.211-0.169 0.207-0.165 0.211-0.162 0.207-0.162 0.211-0.155 0.207-0.155 0.211-0.152 0.207-0.148 0.211-0.148 0.207-0.141 0.211-0.141 0.207-0.139 0.211-0.138 0.207-0.13 0.21-0.132 0.207-0.13 0.211-0.125 0.207-0.123 0.211-0.121 0.207-0.121 0.211-0.114 0.207-0.114 0.211-0.113 0.207-0.111 0.418-0.21 0.211-0.103 0.207-0.1 0.211-0.1 0.207-0.096 0.211-0.096 0.207-0.094 0.211-0.089 0.207-0.09 0.211-0.087 0.207-0.082 0.211-0.083 0.207-0.082 0.211-0.08 0.207-0.078 0.211-0.076 0.207-0.073 0.211-0.072 0.207-0.073 0.211-0.069 0.207-0.065 0.211-0.066 0.207-0.065 0.211-0.062 0.207-0.062 0.211-0.062 0.207-0.059 0.211-0.055 0.207-0.055 0.211-0.055 0.207-0.052 0.211-0.051 0.207-0.052 0.211-0.049 0.207-0.048 0.211-0.048 0.207-0.045 0.211-0.045 0.207-0.041 0.211-0.041 0.207-0.042 0.211-0.041 0.207-0.038 0.211-0.038v-1.206z" fill="#42d2c2"/></g></g></g></g><g clip-path="url(#clipPath108783)"><g clip-path="url(#clipPath108787)"><g clip-path="url(#clipPath108791)" opacity=".39999"><g transform="translate(-10.286 6.4689)"><path d="m0 0v2.347l0.211 0.094 0.207 0.094 0.211 0.098 0.207 0.097 0.211 0.106 0.207 0.105 0.211 0.11 0.207 0.113 0.211 0.117 0.207 0.121 0.211 0.121 0.207 0.129 0.211 0.129 0.207 0.133 0.211 0.137 0.207 0.144 0.211 0.145 0.207 0.148 0.211 0.152 0.207 0.153 0.211 0.16 0.207 0.164 0.211 0.168 0.207 0.172 0.211 0.176 0.207 0.179 0.211 0.184 0.207 0.191 0.211 0.192 0.207 0.195 0.211 0.203 0.207 0.203 0.211 0.207 0.207 0.215 0.211 0.219 0.207 0.223 0.211 0.222 0.207 0.231 0.211 0.234 0.207 0.238 0.211 0.246 0.207 0.247 0.211 0.25 0.207 0.253 0.211 0.262 0.207 0.262 0.211 0.269 0.207 0.27 0.211 0.277 0.207 0.278 0.211 0.285 0.207 0.285 0.211 0.289 0.207 0.297 0.211 0.297 0.207 0.301 0.211 0.304 0.207 0.305 0.211 0.312 0.207 0.313 0.21 0.316 0.207 0.321 0.211 0.324 0.207 0.324 0.211 0.328 0.207 0.328 0.211 0.332 0.207 0.336 0.211 0.336 0.207 0.336 0.211 0.34 0.207 0.344 0.211 0.34 0.207 0.343 0.211 0.344 0.207 0.348 0.211 0.343 0.207 0.348 0.211 0.348 0.207 0.344 0.211 0.347 0.207 0.348 0.211 0.344 0.207 0.347 0.211 0.344 0.207 0.344 0.211 0.34 0.207 0.339 0.211 0.34 0.207 0.336 0.211 0.336 0.207 0.332 0.211 0.328 0.207 0.328 0.211 0.325 0.207 0.32 0.211 0.316 0.207 0.313 0.211 0.309 0.207 0.304 0.211 0.305 0.207 0.293 0.211 0.293 0.207 0.285 0.211 0.285 0.207 0.274 0.211 0.273 0.207 0.262 0.211 0.261 0.207 0.25 0.211 0.247 0.207 0.242 0.211 0.234 0.207 0.223 0.211 0.222 0.207 0.211 0.211 0.203 0.207 0.2 0.211 0.187 0.207 0.18 0.211 0.176 0.207 0.164 0.21 0.156 0.208 0.148 0.21 0.141 0.208 0.129 0.21 0.125 0.207 0.113 0.211 0.106 0.207 0.093 0.211 0.086 0.207 0.079 0.211 0.066 0.207 0.058 0.211 0.051 0.207 0.039 0.211 0.032 0.207 0.019 0.211 0.012 0.207 4e-3 0.211-8e-3 0.207-0.016 0.211-0.027 0.207-0.035 0.211-0.047 0.207-0.055 0.211-0.062 0.207-0.074 0.211-0.083 0.207-0.089 0.211-0.102 0.207-0.109 0.211-0.117 0.207-0.129 0.211-0.137 0.207-0.145 0.211-0.152 0.207-0.16 0.211-0.172 0.207-0.176 0.211-0.187 0.207-0.192 0.211-0.203 0.207-0.207 0.211-0.219 0.207-0.222 0.211-0.231 0.207-0.234 0.211-0.246 0.207-0.25 0.211-0.254 0.207-0.262 0.211-0.269 0.207-0.274 0.211-0.281 0.207-0.281 0.211-0.293 0.207-0.293 0.211-0.301 0.207-0.301 0.211-0.308 0.207-0.313 0.211-0.312 0.207-0.321 0.211-0.324 0.207-0.324 0.211-0.328 0.207-0.332 0.21-0.332 0.207-0.336 0.211-0.336 0.207-0.34 0.211-0.344 0.207-0.34 0.211-0.343 0.207-0.348 0.211-0.344 0.207-0.347 0.211-0.344 0.207-0.348 0.211-0.348 0.207-0.347 0.211-0.344 0.207-0.348 0.211-0.343 0.207-0.344 0.211-0.344 0.207-0.34 0.211-0.34 0.207-0.339 0.211-0.336 0.207-0.336 0.211-0.332 0.207-0.332 0.211-0.328 0.207-0.329 0.211-0.324 0.207-0.32 0.211-0.316 0.207-0.317 0.211-0.312 0.207-0.309 0.211-0.305 0.207-0.3 0.211-0.301 0.207-0.297 0.211-0.289 0.207-0.289 0.211-0.285 0.207-0.282 0.211-0.277 0.207-0.273 0.211-0.27 0.207-0.266 0.211-0.257 0.207-0.258 0.211-0.254 0.207-0.25 0.211-0.242 0.207-0.242 0.211-0.235 0.207-0.234 0.211-0.227 0.207-0.222 0.211-0.223 0.207-0.215 0.418-0.418 0.211-0.199 0.207-0.199 0.21-0.196 0.208-0.187 0.21-0.188 0.208-0.183 0.21-0.176 0.207-0.172 0.211-0.172 0.207-0.164 0.211-0.164 0.207-0.156 0.211-0.153 0.207-0.152 0.211-0.144 0.207-0.145 0.211-0.137 0.207-0.136 0.211-0.133 0.207-0.125 0.211-0.125 0.207-0.121 0.211-0.121 0.207-0.114 0.211-0.109 0.207-0.109 0.211-0.106 0.207-0.101 0.211-0.098 0.207-0.098 0.211-0.093 0.207-0.09 0.211-0.086 0.207-0.086 0.211-0.082 0.207-0.078 0.211-0.078 0.207-0.075 0.211-0.07 0.207-0.07 0.211-0.067 0.207-0.066 0.211-0.063 0.207-0.058 0.211-0.059 0.207-0.058 0.211-0.051 0.207-0.055 0.211-0.051 0.207-0.047 0.211-0.046 0.207-0.047 0.211-0.043 0.207-0.043 0.211-0.039 0.207-0.039 0.211-0.036 0.207-0.039 0.211-0.031 0.207-0.035 0.211-0.031 0.207-0.031 0.211-0.028 0.207-0.031 0.211-0.024 0.207-0.027 0.211-0.023 0.207-0.024 0.21-0.023 0.207-0.024 0.211-0.019 0.207-0.02 0.211-0.019 0.207-0.02 0.211-0.015 0.207-0.02 0.211-0.016 0.207-0.015 0.211-0.012 0.207-0.015 0.211-0.012 0.207-0.016 0.211-0.012 0.207-0.011 0.211-8e-3 0.207-0.012 0.211-0.011 0.207-8e-3 0.211-8e-3 0.207-0.012 0.211-8e-3 0.207-7e-3 0.211-8e-3 0.207-4e-3 0.211-8e-3 0.207-8e-3 0.211-4e-3 0.207-8e-3 0.211-3e-3 0.207-4e-3 0.211-8e-3 0.207-4e-3 0.211-4e-3 0.207-4e-3 0.211-4e-3 0.207-4e-3 0.211-4e-3 0.207-4e-3 0.211-3e-3 0.207-4e-3h0.211l0.207-4e-3 0.211-4e-3h0.207l0.211-4e-3h0.207l0.211-4e-3h0.207l0.211-4e-3h0.207l0.211-4e-3h0.418l0.207-4e-3h0.418l0.211-4e-3h0.625l0.21-3e-3h0.836l0.207-4e-3h1.254l0.211-4e-3h2.926l0.207-4e-3h19.438z" fill="#42d2c2"/></g></g></g></g><g clip-path="url(#clipPath108795)"><g clip-path="url(#clipPath108799)"><g clip-path="url(#clipPath108803)" opacity=".39999"><g transform="translate(-10.286 6.4689)"><path d="m0 0v8e-3h1.047l0.207 4e-3h1.047l0.207 3e-3h0.836l0.211 4e-3h0.418l0.207 4e-3h0.418l0.211 4e-3h0.418l0.207 4e-3h0.418l0.211 4e-3h0.207l0.211 4e-3h0.207l0.211 4e-3h0.207l0.211 4e-3 0.207 4e-3h0.211l0.207 3e-3 0.211 4e-3h0.207l0.211 4e-3 0.207 4e-3 0.211 4e-3 0.207 4e-3 0.211 4e-3 0.207 4e-3 0.211 4e-3 0.207 4e-3 0.211 4e-3 0.207 3e-3 0.211 4e-3 0.207 4e-3 0.211 8e-3 0.207 4e-3 0.211 8e-3 0.207 4e-3 0.211 8e-3 0.207 3e-3 0.211 8e-3 0.207 8e-3 0.21 8e-3 0.207 4e-3 0.211 8e-3 0.207 0.011 0.211 8e-3 0.207 8e-3 0.211 8e-3 0.207 0.011 0.211 8e-3 0.207 0.012 0.211 0.012 0.207 0.011 0.211 0.012 0.207 0.012 0.211 0.012 0.207 0.011 0.211 0.016 0.207 0.012 0.211 0.015 0.207 0.016 0.211 0.016 0.207 0.015 0.211 0.02 0.207 0.015 0.211 0.02 0.207 0.019 0.211 0.02 0.207 0.019 0.211 0.02 0.207 0.023 0.211 0.024 0.207 0.023 0.211 0.024 0.207 0.027 0.211 0.024 0.207 0.027 0.211 0.031 0.207 0.027 0.211 0.032 0.207 0.031 0.211 0.031 0.207 0.031 0.211 0.036 0.207 0.035 0.211 0.039 0.207 0.035 0.211 0.039 0.207 0.043 0.211 0.043 0.207 0.043 0.211 0.043 0.207 0.047 0.211 0.047 0.207 0.047 0.211 0.05 0.207 0.055 0.211 0.051 0.207 0.054 0.211 0.059 0.207 0.059 0.211 0.058 0.207 0.063 0.21 0.066 0.208 0.067 0.21 0.066 0.208 0.07 0.21 0.071 0.207 0.074 0.211 0.078 0.207 0.078 0.211 0.078 0.207 0.082 0.211 0.086 0.207 0.086 0.211 0.09 0.207 0.094 0.211 0.093 0.207 0.094 0.211 0.102 0.207 0.101 0.211 0.106 0.207 0.105 0.211 0.11 0.207 0.113 0.211 0.113 0.207 0.121 0.211 0.121 0.207 0.121 0.211 0.129 0.207 0.129 0.211 0.133 0.207 0.137 0.211 0.14 0.207 0.141 0.211 0.145 0.207 0.152 0.211 0.152 0.207 0.153 0.211 0.16 0.207 0.164 0.211 0.164 0.207 0.168 0.211 0.176 0.207 0.175 0.211 0.18 0.207 0.184 0.211 0.187 0.207 0.192 0.211 0.195 0.207 0.199 0.211 0.199 0.418 0.418 0.207 0.215 0.211 0.215 0.207 0.223 0.211 0.226 0.207 0.227 0.211 0.234 0.207 0.238 0.211 0.243 0.207 0.242 0.211 0.25 0.207 0.254 0.211 0.258 0.207 0.257 0.211 0.266 0.207 0.27 0.21 0.273 0.207 0.277 0.211 0.282 0.207 0.285 0.211 0.289 0.207 0.289 0.211 0.297 0.207 0.3 0.211 0.305 0.207 0.309 0.211 0.312 0.207 0.317 0.211 0.316 0.207 0.324 0.211 0.325 0.207 0.332 0.211 0.332 0.207 0.339 0.211 0.34 0.207 0.344 0.211 0.348 0.207 0.347 0.211 0.356 0.207 0.355 0.211 0.36 0.207 0.363 0.211 0.367 0.207 0.367 0.211 0.371 0.207 0.375 0.211 0.375 0.207 0.379 0.211 0.383 0.207 0.383 0.211 0.387 0.207 0.386 0.211 0.391 0.207 0.391 0.211 0.394 0.207 0.395 0.211 0.394 0.207 0.399 0.211 0.398 0.207 0.402 0.211 0.403 0.207 0.402 0.211 0.402 0.207 0.403 0.211 0.406 0.207 0.402 0.211 0.407 0.207 0.402 0.211 0.406 0.207 0.403 0.211 0.406 0.207 0.402 0.211 0.403 0.207 0.402 0.211 0.402 0.207 0.403 0.211 0.398 0.207 0.395 0.21 0.398 0.208 0.391 0.21 0.394 0.208 0.391 0.21 0.386 0.207 0.387 0.211 0.379 0.207 0.383 0.211 0.375 0.207 0.375 0.211 0.371 0.207 0.367 0.211 0.363 0.207 0.36 0.211 0.355 0.207 0.356 0.211 0.347 0.207 0.344 0.211 0.336 0.207 0.336 0.211 0.328 0.207 0.324 0.211 0.321 0.207 0.312 0.211 0.309 0.207 0.304 0.211 0.297 0.207 0.289 0.211 0.286 0.207 0.281 0.211 0.273 0.207 0.266 0.211 0.258 0.207 0.254 0.211 0.246 0.207 0.238 0.211 0.23 0.207 0.227 0.211 0.219 0.207 0.207 0.211 0.203 0.207 0.195 0.211 0.188 0.207 0.179 0.211 0.168 0.207 0.164 0.211 0.157 0.207 0.144 0.211 0.141 0.207 0.129 0.211 0.121 0.207 0.113 0.211 0.106 0.207 0.093 0.211 0.09 0.207 0.078 0.211 0.071 0.207 0.058 0.211 0.055 0.207 0.043 0.211 0.035 0.207 0.024 0.211 0.015 0.207 8e-3h0.211l0.207-0.012 0.21-0.015 0.207-0.032 0.211-0.035 0.207-0.047 0.211-0.054 0.207-0.063 0.211-0.07 0.207-0.082 0.211-0.09 0.207-0.098 0.211-0.105 0.207-0.117 0.211-0.125 0.207-0.129 0.211-0.141 0.207-0.148 0.211-0.16 0.207-0.165 0.211-0.171 0.207-0.184 0.211-0.188 0.207-0.195 0.211-0.207 0.207-0.211 0.211-0.219 0.207-0.226 0.211-0.234 0.207-0.239 0.211-0.25 0.207-0.254 0.211-0.261 0.207-0.266 0.211-0.277 0.207-0.278 0.211-0.289 0.207-0.293 0.211-0.297 0.207-0.304 0.211-0.309 0.207-0.316 0.211-0.321 0.207-0.328 0.211-0.328 0.207-0.336 0.211-0.34 0.207-0.343 0.211-0.352 0.207-0.352 0.211-0.359 0.207-0.359 0.211-0.364 0.207-0.371 0.211-0.371 0.207-0.375 0.211-0.379 0.207-0.379 0.211-0.382 0.207-0.387 0.211-0.387 0.207-0.39 0.211-0.395 0.207-0.395 0.21-0.394 0.208-0.398 0.21-0.399 0.208-0.402 0.21-0.399 0.207-0.402 0.211-0.406 0.207-0.403 0.211-0.402 0.207-0.406 0.211-0.406 0.207-0.403 0.211-0.406 0.207-0.402 0.211-0.407 0.207-0.402 0.211-0.402 0.207-0.403 0.211-0.402 0.207-0.398 0.211-0.399 0.207-0.398 0.211-0.399 0.207-0.394 0.211-0.391 0.207-0.391 0.211-0.39 0.207-0.387 0.211-0.387 0.207-0.382 0.211-0.379 0.207-0.379 0.211-0.375 0.207-0.375 0.211-0.367 0.207-0.372 0.211-0.363 0.207-0.363 0.211-0.359 0.207-0.356 0.211-0.352 0.207-0.351 0.211-0.344 0.207-0.344 0.211-0.339 0.207-0.336 0.211-0.332 0.207-0.328 0.211-0.329 0.207-0.32 0.211-0.32 0.207-0.313 0.211-0.312 0.207-0.305 0.211-0.305 0.207-0.296 0.211-0.297 0.207-0.293 0.211-0.286 0.207-0.285 0.211-0.281 0.207-0.273 0.211-0.274 0.207-0.269 0.211-0.262 0.207-0.262 0.21-0.254 0.207-0.254 0.211-0.246 0.207-0.246 0.211-0.238 0.207-0.238 0.211-0.231 0.207-0.226 0.211-0.227 0.207-0.219 0.211-0.218 0.207-0.211 0.211-0.211 0.207-0.203 0.211-0.204 0.207-0.195 0.211-0.195 0.207-0.192 0.211-0.183 0.207-0.184 0.211-0.179 0.207-0.176 0.211-0.172 0.207-0.168 0.211-0.164 0.207-0.164 0.211-0.156 0.207-0.157 0.211-0.148 0.207-0.149 0.211-0.144 0.207-0.145 0.211-0.136 0.207-0.137 0.211-0.133 0.207-0.129 0.211-0.125 0.207-0.121 0.211-0.121 0.207-0.117 0.211-0.117 0.207-0.11 0.211-0.109 0.207-0.106 0.211-0.105 0.207-0.102 0.211-0.097 0.207-0.098 0.211-0.094 0.207-0.09 0.211-0.089 0.207-0.086 0.211-0.082 0.207-0.082 0.211-0.082v-2.383z" fill="#42d2c2"/></g></g></g></g><g transform="translate(-10.286 7.836)"><path d="m0 0 1.465 0.285 1.461 0.344 1.254 0.347 1.254 0.399 1.254 0.46 1.047 0.43 1.043 0.485 1.047 0.535 1.043 0.592 1.047 0.652 1.042 0.716 1.047 0.784 1.043 0.851 1.047 0.929 1.043 1 1.047 1.079 1.043 1.155 1.047 1.233 1.043 1.317 1.047 1.388 1.254 1.77 1.254 1.877 1.253 1.969 1.461 2.416 1.465 2.517 1.879 3.354 2.926 5.365 2.719 4.942 1.672 2.924 1.253 2.094 1.254 1.983 1.043 1.554 1.047 1.446 0.836 1.073 0.836 0.993 0.836 0.904 0.836 0.814 0.625 0.547 0.629 0.491 0.625 0.433 0.629 0.372 0.625 0.312 0.629 0.254 0.625 0.189 0.629 0.128 0.625 0.062h0.628l0.626-0.062 0.628-0.128 0.625-0.189 0.629-0.254 0.625-0.312 0.629-0.372 0.625-0.433 0.629-0.491 0.625-0.547 0.836-0.814 0.836-0.904 0.836-0.993 0.836-1.073 1.047-1.446 1.043-1.554 1.047-1.643 1.254-2.079 1.46-2.537 1.883-3.385 6.059-11.018 1.672-2.87 1.465-2.396 1.253-1.955 1.254-1.86 1.254-1.749 1.043-1.378 1.047-1.296 1.043-1.221 1.047-1.141 1.043-1.062 1.047-0.986 1.043-0.911 1.047-0.838 1.043-0.77 1.047-0.705 1.042-0.639 1.047-0.581 1.043-0.522 1.047-0.474 1.043-0.423 1.254-0.451 1.254-0.388 1.254-0.337 1.465-0.337 1.254-0.24" fill="none" stroke="#42d2c2" stroke-linecap="square" stroke-linejoin="round" stroke-miterlimit="10" stroke-width="1.876"/></g><g transform="translate(-10.286 8.8159)"><path d="m0 0 1.047 0.489 0.836 0.445 0.836 0.5 0.836 0.559 0.836 0.613 0.836 0.68 0.836 0.746 0.836 0.808 0.836 0.879 1.043 1.196 1.047 1.296 1.043 1.395 1.047 1.488 1.253 1.891 1.461 2.32 2.301 3.789 2.09 3.418 1.254 1.949 1.043 1.524 0.836 1.137 0.836 1.046 0.836 0.946 0.629 0.636 0.625 0.567 0.628 0.496 0.626 0.418 0.628 0.344 0.625 0.258 0.629 0.175 0.625 0.09 0.629 8e-3 0.625-0.078 0.629-0.164 0.625-0.246 0.629-0.328 0.625-0.411 0.629-0.484 0.625-0.555 0.629-0.629 0.836-0.933 0.836-1.035 0.836-1.129 1.043-1.516 1.254-1.941 1.671-2.719 3.555-5.824 1.461-2.266 1.254-1.824 1.047-1.422 1.043-1.324 1.047-1.223 1.043-1.121 0.836-0.816 0.836-0.754 0.835-0.684 0.836-0.625 0.836-0.562 0.836-0.504 1.047-0.559 1.043-0.48 1.047-0.41 1.043-0.348 1.047-0.289 1.254-0.289 1.254-0.227 1.461-0.207 1.671-0.172 1.883-0.133 2.297-0.097 2.926-0.071 4.391-0.039 9.402-0.015h16.094" fill="none" stroke="#42d2c2" stroke-linecap="square" stroke-linejoin="round" stroke-miterlimit="10" stroke-width="2"/></g><g transform="translate(-10.286 6.4769)"><path d="m0 0 7.524 0.043 3.973 0.074 2.925 0.105 2.297 0.141 1.883 0.164 1.672 0.203 1.461 0.223 1.465 0.285 1.254 0.297 1.253 0.359 1.254 0.426 1.043 0.41 1.047 0.473 1.043 0.535 1.047 0.605 1.043 0.68 1.047 0.762 1.043 0.847 1.047 0.938 1.043 1.031 1.047 1.125 1.043 1.227 1.046 1.324 1.043 1.422 1.047 1.523 1.043 1.614 1.254 2.05 1.254 2.168 1.465 2.653 1.672 3.148 5.64 10.758 1.254 2.211 1.047 1.738 1.043 1.621 0.836 1.199 0.836 1.106 0.836 0.996 0.629 0.676 0.625 0.605 0.629 0.535 0.625 0.465 0.629 0.391 0.625 0.312 0.629 0.239 0.625 0.156 0.629 0.074 0.625-4e-3 0.628-0.082 0.625-0.164 0.629-0.242 0.625-0.32 0.629-0.395 0.625-0.473 0.629-0.543 0.625-0.613 0.629-0.679 0.836-1.004 0.836-1.11 0.836-1.203 1.043-1.629 1.047-1.746 1.254-2.215 1.461-2.719 2.3-4.417 2.926-5.606 1.672-3.07 1.254-2.199 1.254-2.086 1.254-1.965 1.043-1.531 1.047-1.442 1.043-1.34 1.046-1.238 1.043-1.141 1.047-1.047 1.043-0.949 1.047-0.859 1.043-0.774 1.047-0.695 1.043-0.613 1.047-0.547 1.043-0.481 1.047-0.421" fill="none" stroke="#42d2c2" stroke-linecap="square" stroke-linejoin="round" stroke-miterlimit="10" stroke-width="2"/></g></g></g></g><g clip-path="url(#clipPath108903)"><g transform="translate(74.81 40.908)"><path d="m0 0c0-18.953-15.368-34.317-34.317-34.317-18.953 0-34.316 15.364-34.316 34.317s15.363 34.316 34.316 34.316c18.949 0 34.317-15.363 34.317-34.316z" fill="none" stroke="#42d2c2" stroke-width="2"/></g></g></g></svg>
