<svg xmlns="http://www.w3.org/2000/svg" xmlns:xlink="http://www.w3.org/1999/xlink" width="184" height="49.283" viewBox="0 0 184 49.283">
  <defs>
    <clipPath id="clip-path">
      <path id="Tracciato_152" data-name="Tracciato 152" d="M0-96.059H184v-49.283H0Z" transform="translate(0 145.342)" fill="#fff"/>
    </clipPath>
  </defs>
  <g id="Raggruppa_887" data-name="Raggruppa 887" transform="translate(0 145.342)">
    <g id="Raggruppa_871" data-name="Raggruppa 871" transform="translate(0 -145.342)" clip-path="url(#clip-path)">
      <path id="Tracciato_151" data-name="Tracciato 151" d="M65.128-112.561H48.846v16.282H65.128Zm0,16.282M32.564-128.841h16.72a16.5,16.5,0,0,0-16.5-16.5,16.5,16.5,0,0,0-16.417,14.834,16.466,16.466,0,0,0-.084,1.665v-16.279H0v16.281H16.282a16.28,16.28,0,0,0,16.282,16.28H15.844a16.5,16.5,0,0,0,16.5,16.5,16.5,16.5,0,0,0,16.417-14.834,16.463,16.463,0,0,0,.084-1.664v0h0a16.281,16.281,0,0,0-16.282-16.28Z" transform="translate(0 145.342)" fill="#fff"/>
    </g>
    <g id="Raggruppa_872" data-name="Raggruppa 872" transform="translate(73.249 -145.117)">
      <path id="Tracciato_153" data-name="Tracciato 153" d="M-16.74-19.706v1.921h-8.588v-1.921h3.174v-8.189h-3.174v-1.921h8.573v1.921h-3.193v8.189Z" transform="translate(25.328 29.816)" fill="#fff"/>
    </g>
    <g id="Raggruppa_874" data-name="Raggruppa 874" transform="translate(0 -145.342)" clip-path="url(#clip-path)">
      <g id="Raggruppa_873" data-name="Raggruppa 873" transform="translate(84.938 0.126)">
        <path id="Tracciato_154" data-name="Tracciato 154" d="M-4.367-15.436a2.143,2.143,0,0,0,.7,1.688,2.361,2.361,0,0,0,1.5.5c1.22,0,1.822-.75,1.822-1.47s-.518-1.253-1.5-1.488l-1.32-.332c-1.923-.47-3.092-1.673-3.092-3.359a3.73,3.73,0,0,1,3.993-3.459A3.716,3.716,0,0,1,1.548-19.5H-.624a1.8,1.8,0,0,0-.485-1.27,1.727,1.727,0,0,0-1.238-.485A1.5,1.5,0,0,0-4-19.88c0,.535.268,1,1.186,1.235l1.3.317c2.322.587,3.441,1.72,3.441,3.577,0,2.139-1.7,3.624-4.077,3.624a4.251,4.251,0,0,1-4.461-4.31Z" transform="translate(6.607 23.356)" fill="#fff"/>
      </g>
    </g>
    <g id="Raggruppa_875" data-name="Raggruppa 875" transform="translate(96.577 -145.117)">
      <path id="Tracciato_156" data-name="Tracciato 156" d="M-16.739-19.706v1.921h-8.588v-1.921h3.174v-8.189h-3.174v-1.921h8.571v1.921h-3.191v8.189Z" transform="translate(25.327 29.816)" fill="#fff"/>
    </g>
    <g id="Raggruppa_876" data-name="Raggruppa 876" transform="translate(73.968 -126.735)">
      <path id="Tracciato_157" data-name="Tracciato 157" d="M-15.992-4.3h-6v2.706h5.4V.615h-5.4V5.526H-24.2V-6.505h8.2Z" transform="translate(24.196 6.505)" fill="#fff"/>
    </g>
    <g id="Raggruppa_886" data-name="Raggruppa 886" transform="translate(0 -145.342)" clip-path="url(#clip-path)">
      <g id="Raggruppa_877" data-name="Raggruppa 877" transform="translate(84.291 21.914)">
        <path id="Tracciato_158" data-name="Tracciato 158" d="M0-8.6A4.339,4.339,0,0,1,4.278-13.01H4.3A4.335,4.335,0,0,1,8.555-8.6,4.334,4.334,0,0,1,4.3-4.187H4.278A4.338,4.338,0,0,1,0-8.6M4.3-6.391A2.123,2.123,0,0,0,6.35-8.6,2.13,2.13,0,0,0,4.3-10.8H4.278A2.124,2.124,0,0,0,2.206-8.6,2.127,2.127,0,0,0,4.278-6.391Z" transform="translate(0 13.01)" fill="#fff"/>
      </g>
      <g id="Raggruppa_878" data-name="Raggruppa 878" transform="translate(96.17 22.016)">
        <path id="Tracciato_159" data-name="Tracciato 159" d="M-14.982-16.807h-2.206v-1.1a3.317,3.317,0,0,1-2.522,1.2c-1.621,0-2.958-.951-2.958-3.926v-4.8h2.205v4.8a1.682,1.682,0,0,0,1.639,1.723,1.671,1.671,0,0,0,1.636-1.723v-4.8h2.206Z" transform="translate(22.669 25.429)" fill="#fff"/>
      </g>
      <g id="Raggruppa_879" data-name="Raggruppa 879" transform="translate(108.55 21.914)">
        <path id="Tracciato_160" data-name="Tracciato 160" d="M-15.017-7.657v4.8h-2.206v-4.8a1.68,1.68,0,0,0-1.639-1.72,1.683,1.683,0,0,0-1.654,1.72v4.8h-2.206v-8.622h2.206v1.1a3.38,3.38,0,0,1,2.522-1.2c1.621,0,2.976.936,2.976,3.928" transform="translate(22.721 11.585)" fill="#fff"/>
      </g>
      <g id="Raggruppa_880" data-name="Raggruppa 880" transform="translate(119.76 18.607)">
        <path id="Tracciato_161" data-name="Tracciato 161" d="M-16.448-23.451h-2.205V-24.57a3.376,3.376,0,0,1-2.557,1.218c-2.021,0-3.676-1.971-3.676-4.411s1.656-4.412,3.676-4.412a3.385,3.385,0,0,1,2.557,1.221v-4.528h2.205Zm-2.205-4.312a2.079,2.079,0,0,0-1.988-2.2,2.119,2.119,0,0,0-2.039,2.2,2.122,2.122,0,0,0,2.039,2.208,2.081,2.081,0,0,0,1.988-2.208" transform="translate(24.887 35.482)" fill="#fff"/>
      </g>
      <g id="Raggruppa_881" data-name="Raggruppa 881" transform="translate(131.537 21.914)">
        <path id="Tracciato_162" data-name="Tracciato 162" d="M-14.982-6.808-15-3.216v1.638h-2.139v-1.1a3.408,3.408,0,0,1-2.691,1.2A2.559,2.559,0,0,1-22.669-4c0-1.552,1.3-2.355,3.042-2.622.668-.1,1.636-.235,2.49-.352A1.543,1.543,0,0,0-18.775-8.4a1.516,1.516,0,0,0-1.621,1.3h-2.072A3.56,3.56,0,0,1-18.81-10.3a3.529,3.529,0,0,1,3.827,3.493m-2.154,1.371c-.151.017-1.421.25-2,.384-.738.151-1.238.435-1.238.97s.451.968,1.168.968a2.189,2.189,0,0,0,2.074-2.322" transform="translate(22.669 10.301)" fill="#fff"/>
      </g>
      <g id="Raggruppa_882" data-name="Raggruppa 882" transform="translate(142.882 19.56)">
        <path id="Tracciato_163" data-name="Tracciato 163" d="M-7.851-8.271v3.859c0,.7.534.886,1.136.886h1.52v2.089H-7.4a2.556,2.556,0,0,1-2.657-2.79V-8.271h-1.822v-1.787h1.822v-2.456h2.206v2.456h2.656v1.787Z" transform="translate(11.879 12.514)" fill="#fff"/>
      </g>
      <g id="Raggruppa_883" data-name="Raggruppa 883" transform="translate(152.773 18.106)">
        <path id="Tracciato_164" data-name="Tracciato 164" d="M-16.647-20.682v1.921h-8.541v-1.921h3.176v-4.78h-2.374v-1.921h4.579v6.7Zm-5.783-9.157a1.458,1.458,0,0,1,1.471-1.453,1.473,1.473,0,0,1,1.488,1.453,1.491,1.491,0,0,1-1.488,1.488,1.476,1.476,0,0,1-1.471-1.488" transform="translate(25.188 31.292)" fill="#fff"/>
      </g>
      <g id="Raggruppa_884" data-name="Raggruppa 884" transform="translate(163.898 21.914)">
        <path id="Tracciato_165" data-name="Tracciato 165" d="M0-8.6A4.339,4.339,0,0,1,4.278-13.01H4.3A4.334,4.334,0,0,1,8.555-8.6,4.332,4.332,0,0,1,4.3-4.187H4.278A4.337,4.337,0,0,1,0-8.6M4.3-6.391A2.123,2.123,0,0,0,6.35-8.6,2.13,2.13,0,0,0,4.3-10.8H4.278A2.124,2.124,0,0,0,2.206-8.6,2.127,2.127,0,0,0,4.278-6.391Z" transform="translate(0 13.01)" fill="#fff"/>
      </g>
      <g id="Raggruppa_885" data-name="Raggruppa 885" transform="translate(176.296 21.914)">
        <path id="Tracciato_166" data-name="Tracciato 166" d="M-15.016-7.657v4.8h-2.206v-4.8a1.68,1.68,0,0,0-1.639-1.72,1.683,1.683,0,0,0-1.654,1.72v4.8H-22.72v-8.622h2.206v1.1a3.38,3.38,0,0,1,2.522-1.2c1.621,0,2.976.936,2.976,3.928" transform="translate(22.72 11.585)" fill="#fff"/>
      </g>
    </g>
  </g>
</svg>
