<?xml version="1.0" encoding="UTF-8" standalone="no"?>
<!-- Created with Inkscape (http://www.inkscape.org/) -->

<svg
   width="180mm"
   height="87mm"
   viewBox="0 0 180 87"
   version="1.1"
   id="svg1339"
   xmlns="http://www.w3.org/2000/svg"
   xmlns:svg="http://www.w3.org/2000/svg">
  <defs
     id="defs1336">
    <clipPath
       clipPathUnits="userSpaceOnUse"
       id="clipPath1375">
      <path
         d="M 0,0 H 365760 V 205740 H 0 Z"
         id="path1373" />
    </clipPath>
    <clipPath
       clipPathUnits="userSpaceOnUse"
       id="clipPath2958">
      <path
         d="M 0,0 H 365760 V 205740 H 0 Z"
         id="path2956" />
    </clipPath>
    <clipPath
       clipPathUnits="userSpaceOnUse"
       id="clipPath5223">
      <path
         d="M 0,0 H 365760 V 205740 H 0 Z"
         id="path5221" />
    </clipPath>
  </defs>
  <g
     id="layer1">
    <g
       id="g1371"
       clip-path="url(#clipPath1375)"
       transform="matrix(6.9444394e-4,0,0,6.9444394e-4,-22.239908,77.062552)">
      <g
         id="g1399"
         transform="scale(381)" />
      <g
         id="g1417"
         transform="scale(381)" />
      <g
         id="g1435"
         transform="scale(381)" />
      <g
         id="g1453"
         transform="scale(381)" />
      <g
         id="g1517"
         transform="scale(381)" />
      <g
         id="g1537"
         transform="scale(381)" />
      <g
         id="g1557"
         transform="scale(381)" />
      <g
         id="g1579"
         transform="scale(381)" />
      <g
         id="g1615"
         transform="scale(381)" />
      <g
         id="g1651"
         transform="scale(381)" />
    </g>
    <g
       id="g2954"
       clip-path="url(#clipPath2958)"
       transform="matrix(6.9444394e-4,0,0,6.9444394e-4,-34.389908,-0.69744811)">
      <g
         id="g2982"
         transform="scale(381)" />
      <g
         id="g3000"
         transform="scale(381)" />
      <g
         id="g3018"
         transform="scale(381)" />
      <g
         id="g3036"
         transform="scale(381)" />
      <g
         id="g3080"
         transform="scale(381)" />
      <g
         id="g3100"
         transform="scale(381)" />
      <g
         id="g3120"
         transform="scale(381)" />
      <g
         id="g3138"
         transform="scale(381)" />
      <g
         id="g3198"
         transform="scale(381)" />
      <g
         id="g3222"
         transform="scale(381)" />
    </g>
    <g
       id="g5219"
       clip-path="url(#clipPath5223)"
       transform="matrix(6.9444394e-4,0,0,6.9444394e-4,182.6337,65.623707)">
      <g
         id="g5247"
         transform="scale(381)" />
      <g
         id="g5265"
         transform="scale(381)" />
      <g
         id="g5283"
         transform="scale(381)" />
      <g
         id="g5301"
         transform="scale(381)" />
      <g
         id="g5345"
         transform="scale(381)" />
      <g
         id="g5365"
         transform="scale(381)" />
      <g
         id="g5393"
         transform="scale(381)" />
      <g
         id="g5411"
         transform="scale(381)" />
      <g
         id="g5471"
         transform="scale(381)" />
      <g
         id="g5495"
         transform="scale(381)" />
    </g>
    <g
       id="g6390"
       transform="matrix(5.7104253e-4,0,0,5.7104253e-4,-16.422704,-20.29315)">
      <g
         id="g5231">
        <g
           id="g5233">
          <path
             d="m 36921.832,95487.46 v 0 c 0,-3359.06 2723.058,-6082.124 6082.121,-6082.124 H 79751.71 c 1613.08,0 3160.09,640.794 4300.71,1781.414 1140.62,1140.62 1781.41,2687.63 1781.41,4300.71 v 24327.76 c 0,3359.06 -2723.06,6082.12 -6082.12,6082.12 H 43003.953 v 0 c -3359.063,0 -6082.121,-2723.06 -6082.121,-6082.12 z"
             style="fill:#478d9c;fill-opacity:1;fill-rule:evenodd;stroke:none"
             id="path5235" />
        </g>
      </g>
      <g
         id="g5237"
         transform="scale(381)">
        <g
           id="g5239"
           transform="translate(101.58326,239.33525)">
          <g
             id="g5241">
            <text
               transform="translate(45.42936,63.521004)"
               style="font-variant:normal;font-weight:bold;font-size:56.5696px;font-family:'Encode Sans Condensed';-inkscape-font-specification:EncodeSansCondensed-Bold;writing-mode:lr-tb;fill:#ffffff;fill-opacity:1;fill-rule:nonzero;stroke:none"
               id="text5245"><tspan
                 x="0"
                 y="0"
                 id="tspan5243">S</tspan></text>
          </g>
        </g>
      </g>
      <g
         id="g5249">
        <g
           id="g5251">
          <path
             d="m 115931.33,95487.46 v 0 c 0,-3359.06 2723.06,-6082.124 6082.12,-6082.124 h 36747.75 c 1613.08,0 3160.1,640.794 4300.72,1781.414 1140.61,1140.62 1781.41,2687.63 1781.41,4300.71 v 24327.76 c 0,3359.06 -2723.06,6082.12 -6082.13,6082.12 h -36747.75 v 0 c -3359.06,0 -6082.12,-2723.06 -6082.12,-6082.12 z"
             style="fill:#eeb052;fill-opacity:1;fill-rule:evenodd;stroke:none"
             id="path5253" />
        </g>
      </g>
      <g
         id="g5255"
         transform="scale(381)">
        <g
           id="g5257"
           transform="translate(308.95728,239.33525)">
          <g
             id="g5259">
            <text
               transform="translate(44.326393,63.521004)"
               style="font-variant:normal;font-weight:bold;font-size:56.5696px;font-family:'Encode Sans Condensed';-inkscape-font-specification:EncodeSansCondensed-Bold;writing-mode:lr-tb;fill:#ffffff;fill-opacity:1;fill-rule:nonzero;stroke:none"
               id="text5263"><tspan
                 x="0"
                 y="0"
                 id="tspan5261">E</tspan></text>
          </g>
        </g>
      </g>
      <g
         id="g5267">
        <g
           id="g5269">
          <path
             d="m 194940.83,95487.46 v 0 c 0,-3359.06 2723.06,-6082.124 6082.12,-6082.124 h 36747.75 c 1613.08,0 3160.1,640.794 4300.72,1781.414 1140.61,1140.62 1781.41,2687.63 1781.41,4300.71 v 24327.76 c 0,3359.06 -2723.06,6082.12 -6082.13,6082.12 h -36747.75 v 0 c -3359.06,0 -6082.12,-2723.06 -6082.12,-6082.12 z"
             style="fill:#cc5500;fill-opacity:1;fill-rule:evenodd;stroke:none"
             id="path5271" />
        </g>
      </g>
      <g
         id="g5273"
         transform="scale(381)">
        <g
           id="g5275"
           transform="translate(516.3313,239.33525)">
          <g
             id="g5277">
            <text
               transform="translate(52.202713,63.521004)"
               style="font-variant:normal;font-weight:bold;font-size:56.5696px;font-family:'Encode Sans Condensed';-inkscape-font-specification:EncodeSansCondensed-Bold;writing-mode:lr-tb;fill:#ffffff;fill-opacity:1;fill-rule:nonzero;stroke:none"
               id="text5281"><tspan
                 x="0"
                 y="0"
                 id="tspan5279">I</tspan></text>
          </g>
        </g>
      </g>
      <g
         id="g5285">
        <g
           id="g5287">
          <path
             d="m 260117.83,45306.46 v 0 c 0,-3359.065 2723.05,-6082.124 6082.11,-6082.124 h 36747.78 c 1613.06,0 3160.08,640.797 4300.68,1781.414 1140.63,1140.617 1781.44,2687.63 1781.44,4300.71 v 24327.76 c 0,3359.06 -2723.06,6082.116 -6082.12,6082.116 h -36747.78 v 0 c -3359.06,0 -6082.11,-2723.056 -6082.11,-6082.116 z"
             style="fill:#6fc0ad;fill-opacity:1;fill-rule:evenodd;stroke:none"
             id="path5289" />
        </g>
      </g>
      <g
         id="g5291"
         transform="scale(381)">
        <g
           id="g5293"
           transform="translate(687.39954,107.62659)">
          <g
             id="g5295">
            <text
               transform="translate(42.148743,63.521004)"
               style="font-variant:normal;font-weight:bold;font-size:56.5696px;font-family:'Encode Sans Condensed';-inkscape-font-specification:EncodeSansCondensed-Bold;writing-mode:lr-tb;fill:#ffffff;fill-opacity:1;fill-rule:nonzero;stroke:none"
               id="text5299"><tspan
                 x="0"
                 y="0"
                 id="tspan5297">R</tspan></text>
          </g>
        </g>
      </g>
      <g
         id="g5303">
        <g
           id="g5305">
          <g
             id="g5307">
            <path
               d="m 85833.83,107651.34 h 30096"
               style="fill:#000000;fill-opacity:0;fill-rule:evenodd;stroke:none"
               id="path5309" />
          </g>
        </g>
        <path
           d="m 85833.83,107651.34 h 27810"
           style="fill:none;stroke:#eeeeee;stroke-width:381;stroke-linecap:butt;stroke-linejoin:round;stroke-miterlimit:8;stroke-dasharray:none;stroke-opacity:1"
           id="path5311" />
        <path
           d="m 113643.83,108280.65 1729.01,-629.31 -1729.01,-629.32 z"
           style="fill:#eeeeee;fill-opacity:1;fill-rule:evenodd;stroke:#eeeeee;stroke-width:381;stroke-linecap:butt;stroke-linejoin:miter;stroke-miterlimit:10;stroke-dasharray:none;stroke-opacity:1"
           id="path5313" />
      </g>
      <g
         id="g5315">
        <g
           id="g5317">
          <g
             id="g5319">
            <path
               d="m 164843.33,107651.34 h 30096"
               style="fill:#000000;fill-opacity:0;fill-rule:evenodd;stroke:none"
               id="path5321" />
          </g>
        </g>
        <path
           d="m 164843.33,107651.34 h 27810"
           style="fill:none;stroke:#eeeeee;stroke-width:381;stroke-linecap:butt;stroke-linejoin:round;stroke-miterlimit:8;stroke-dasharray:none;stroke-opacity:1"
           id="path5323" />
        <path
           d="m 192653.33,108280.65 1729.01,-629.31 -1729.01,-629.32 z"
           style="fill:#eeeeee;fill-opacity:1;fill-rule:evenodd;stroke:#eeeeee;stroke-width:381;stroke-linecap:butt;stroke-linejoin:miter;stroke-miterlimit:10;stroke-dasharray:none;stroke-opacity:1"
           id="path5325" />
      </g>
      <g
         id="g5327">
        <g
           id="g5329">
          <g
             id="g5331">
            <path
               d="m 85164,75716.414 h 36216 V 113408.41 H 85164 Z"
               style="fill:#000000;fill-opacity:0;fill-rule:evenodd;stroke:none"
               id="path5333" />
          </g>
        </g>
      </g>
      <g
         id="g5335"
         transform="scale(381)">
        <g
           id="g5337"
           transform="translate(223.52756,198.73076)">
          <g
             id="g5339">
            <text
               transform="translate(27,61.92941)"
               style="font-variant:normal;font-weight:normal;font-size:36.3848px;font-family:Arial;-inkscape-font-specification:ArialMT;writing-mode:lr-tb;fill:#eeeeee;fill-opacity:1;fill-rule:nonzero;stroke:none"
               id="text5343"><tspan
                 x="0"
                 y="0"
                 id="tspan5341">β</tspan></text>
          </g>
        </g>
      </g>
      <g
         id="g5347">
        <g
           id="g5349">
          <g
             id="g5351">
            <path
               d="m 164772.31,72700.414 h 36216 v 41387.996 h -36216 z"
               style="fill:#000000;fill-opacity:0;fill-rule:evenodd;stroke:none"
               id="path5353" />
          </g>
        </g>
      </g>
      <g
         id="g5355"
         transform="scale(381)">
        <g
           id="g5357"
           transform="translate(432.47324,190.81473)">
          <g
             id="g5359">
            <text
               transform="translate(27,69.609406)"
               style="font-variant:normal;font-weight:normal;font-size:44.3848px;font-family:Arial;-inkscape-font-specification:ArialMT;writing-mode:lr-tb;fill:#eeeeee;fill-opacity:1;fill-rule:nonzero;stroke:none"
               id="text5363"><tspan
                 x="0"
                 y="0"
                 id="tspan5361">ε</tspan></text>
          </g>
        </g>
      </g>
      <g
         id="g5367">
        <g
           id="g5369">
          <g
             id="g5371">
            <path
               d="m 180121,40160 h 63732 v 34620 h -63732 z"
               style="fill:#000000;fill-opacity:0;fill-rule:evenodd;stroke:none"
               id="path5373" />
          </g>
        </g>
      </g>
      <g
         id="g5375"
         transform="scale(381)">
        <g
           id="g5377"
           transform="translate(472.7585,105.40682)">
          <g
             id="g5379">
            <text
               transform="translate(27,55.529404)"
               style="font-variant:normal;font-weight:normal;font-size:29.7181px;font-family:'Encode Sans Condensed';-inkscape-font-specification:EncodeSansSemiCondensed-Regular;writing-mode:lr-tb;fill:#eeeeee;fill-opacity:1;fill-rule:nonzero;stroke:none"
               id="text5383"><tspan
                 x="0 15.542583 22.288599 31.471502 41.367641 48.113655 59.614574 66.360588"
                 y="0"
                 id="tspan5381">μ (1 - p</tspan></text>
            <text
               transform="translate(108.95096,66.673706)"
               style="font-variant:normal;font-weight:normal;font-size:19.8121px;font-family:'Encode Sans Condensed';-inkscape-font-specification:EncodeSansSemiCondensed-Regular;writing-mode:lr-tb;fill:#eeeeee;fill-opacity:1;fill-rule:nonzero;stroke:none"
               id="text5387"><tspan
                 x="0"
                 y="0"
                 id="tspan5385">H</tspan></text>
            <text
               transform="translate(122.34352,55.529404)"
               style="font-variant:normal;font-weight:normal;font-size:29.7181px;font-family:'Encode Sans Condensed';-inkscape-font-specification:EncodeSansSemiCondensed-Regular;writing-mode:lr-tb;fill:#eeeeee;fill-opacity:1;fill-rule:nonzero;stroke:none"
               id="text5391"><tspan
                 x="0"
                 y="0"
                 id="tspan5389">)</tspan></text>
          </g>
        </g>
      </g>
      <g
         id="g5395">
        <g
           id="g5397">
          <path
             d="m 260117.83,150175.45 v 0 c 0,-3359.06 2723.05,-6082.11 6082.11,-6082.11 h 36747.78 c 1613.06,0 3160.08,640.78 4300.68,1781.41 1140.63,1140.63 1781.44,2687.63 1781.44,4300.7 v 24327.77 c 0,3359.06 -2723.06,6082.12 -6082.12,6082.12 h -36747.78 v 0 c -3359.06,0 -6082.11,-2723.06 -6082.11,-6082.12 z"
             style="fill:#b4a7d6;fill-opacity:1;fill-rule:evenodd;stroke:none"
             id="path5399" />
        </g>
      </g>
      <g
         id="g5401"
         transform="scale(381)">
        <g
           id="g5403"
           transform="translate(687.39954,382.87332)">
          <g
             id="g5405">
            <text
               transform="translate(40.80538,63.521004)"
               style="font-variant:normal;font-weight:bold;font-size:56.5696px;font-family:'Encode Sans Condensed';-inkscape-font-specification:EncodeSansCondensed-Bold;writing-mode:lr-tb;fill:#ffffff;fill-opacity:1;fill-rule:nonzero;stroke:none"
               id="text5409"><tspan
                 x="0"
                 y="0"
                 id="tspan5407">H</tspan></text>
          </g>
        </g>
      </g>
      <g
         id="g5413">
        <g
           id="g5415">
          <g
             id="g5417">
            <path
               d="m 219396.83,125897.34 c 0,18222 20358,36444 40716,36444"
               style="fill:#000000;fill-opacity:0;fill-rule:evenodd;stroke:none"
               id="path5419" />
          </g>
        </g>
        <path
           d="m 219396.83,125897.34 c 0,9111 5089.5,18222 12723.75,25055.26 3817.12,3416.62 8270.44,6263.8 13041.84,8256.84 2385.7,996.51 4850.92,1779.48 7355.92,2313.34 1252.49,266.92 2514.93,471.56 3782.33,609.47 316.86,34.48 634.02,64.78 951.41,90.86 158.7,13.03 317.45,25 476.26,35.91 l 99.74,6.51"
           style="fill:none;stroke:#eeeeee;stroke-width:381;stroke-linecap:butt;stroke-linejoin:round;stroke-miterlimit:8;stroke-dasharray:none;stroke-opacity:1"
           id="path5421" />
        <path
           d="m 257807.22,162894.5 1748.94,-571.62 -1707.21,-686.32 z"
           style="fill:#eeeeee;fill-opacity:1;fill-rule:evenodd;stroke:#eeeeee;stroke-width:381;stroke-linecap:butt;stroke-linejoin:miter;stroke-miterlimit:10;stroke-dasharray:none;stroke-opacity:1"
           id="path5423" />
      </g>
      <g
         id="g5425">
        <g
           id="g5427">
          <g
             id="g5429">
            <path
               d="m 309029.84,162339.34 c 13647.56,0 27292.16,-26217 27295.16,-52434 3,-26217.004 -13635.6,-52434.004 -27271.16,-52434.004"
               style="fill:#000000;fill-opacity:0;fill-rule:evenodd;stroke:none"
               id="path5431" />
          </g>
        </g>
        <path
           d="m 309029.84,162339.34 c 13647.56,0 27292.16,-26217 27295.16,-52434 1.5,-13108.504 -3407.4,-26217.004 -8521.12,-36048.38 -2556.85,-4915.69 -5539.91,-9012.093 -8736,-11879.577 -1598.04,-1433.743 -3249.32,-2560.253 -4927.18,-3328.328 -838.98,-384.039 -1684.58,-678.469 -2533.48,-876.891 -53.06,-12.398 -106.12,-24.424 -159.22,-36.074 l -120.7,-25.63"
           style="fill:none;stroke:#eeeeee;stroke-width:381;stroke-linecap:butt;stroke-linejoin:round;stroke-miterlimit:8;stroke-dasharray:none;stroke-opacity:1"
           id="path5433" />
        <path
           d="m 311393.12,57084.605 -1785.34,444.993 1653.69,806.722 z"
           style="fill:#eeeeee;fill-opacity:1;fill-rule:evenodd;stroke:#eeeeee;stroke-width:381;stroke-linecap:butt;stroke-linejoin:miter;stroke-miterlimit:10;stroke-dasharray:none;stroke-opacity:1"
           id="path5435" />
      </g>
      <g
         id="g5437">
        <g
           id="g5439">
          <g
             id="g5441">
            <path
               d="m 219396.83,89405.336 c 0,-15966 20358,-31932 40716,-31932"
               style="fill:#000000;fill-opacity:0;fill-rule:evenodd;stroke:none"
               id="path5443" />
          </g>
        </g>
        <path
           d="m 219396.83,89405.336 c 0,-7983 5089.5,-15966 12723.75,-21953.25 3817.12,-2993.626 8270.44,-5488.313 13041.84,-7234.594 2385.7,-873.142 4850.92,-1559.18 7355.92,-2026.932 1252.49,-233.88 2514.93,-413.185 3782.33,-534.02 316.86,-30.208 634.02,-56.763 951.41,-79.602 158.7,-11.422 317.45,-21.915 476.26,-31.465 l 99.46,-5.399"
           style="fill:none;stroke:#eeeeee;stroke-width:381;stroke-linecap:butt;stroke-linejoin:round;stroke-miterlimit:8;stroke-dasharray:none;stroke-opacity:1"
           id="path5445" />
        <path
           d="m 257846.17,58169.117 1709.91,-679.519 -1746.64,-578.563 z"
           style="fill:#eeeeee;fill-opacity:1;fill-rule:evenodd;stroke:#eeeeee;stroke-width:381;stroke-linecap:butt;stroke-linejoin:miter;stroke-miterlimit:10;stroke-dasharray:none;stroke-opacity:1"
           id="path5447" />
      </g>
      <g
         id="g5449">
        <g
           id="g5451">
          <g
             id="g5453">
            <path
               d="m 304569.53,91058.195 h 36216 V 128750.2 h -36216 z"
               style="fill:#000000;fill-opacity:0;fill-rule:evenodd;stroke:none"
               id="path5455" />
          </g>
        </g>
      </g>
      <g
         id="g5457"
         transform="scale(381)">
        <g
           id="g5459"
           transform="translate(799.3951,238.9979)">
          <g
             id="g5461">
            <text
               transform="translate(27,61.92941)"
               style="font-variant:normal;font-weight:normal;font-size:36.3848px;font-family:'Encode Sans Condensed';-inkscape-font-specification:EncodeSansSemiCondensed-Regular;writing-mode:lr-tb;fill:#eeeeee;fill-opacity:1;fill-rule:nonzero;stroke:none"
               id="text5465"><tspan
                 x="0"
                 y="0"
                 id="tspan5463">μ</tspan></text>
            <text
               transform="translate(46.024155,75.57371)"
               style="font-variant:normal;font-weight:normal;font-size:24.2565px;font-family:'Encode Sans Condensed';-inkscape-font-specification:EncodeSansSemiCondensed-Regular;writing-mode:lr-tb;fill:#eeeeee;fill-opacity:1;fill-rule:nonzero;stroke:none"
               id="text5469"><tspan
                 x="0"
                 y="0"
                 id="tspan5467">H</tspan></text>
          </g>
        </g>
      </g>
      <g
         id="g5473">
        <g
           id="g5475">
          <g
             id="g5477">
            <path
               d="m 194484.3,132255.06 h 40716 v 34620 h -40716 z"
               style="fill:#000000;fill-opacity:0;fill-rule:evenodd;stroke:none"
               id="path5479" />
          </g>
        </g>
      </g>
      <g
         id="g5481"
         transform="scale(381)">
        <g
           id="g5483"
           transform="translate(510.4575,347.12613)">
          <g
             id="g5485">
            <text
               transform="translate(27,55.529404)"
               style="font-variant:normal;font-weight:normal;font-size:29.7181px;font-family:'Encode Sans Condensed';-inkscape-font-specification:EncodeSansSemiCondensed-Regular;writing-mode:lr-tb;fill:#eeeeee;fill-opacity:1;fill-rule:nonzero;stroke:none"
               id="text5489"><tspan
                 x="0 15.542583 22.288599"
                 y="0"
                 id="tspan5487">μ p</tspan></text>
            <text
               transform="translate(64.85666,66.673706)"
               style="font-variant:normal;font-weight:normal;font-size:19.8121px;font-family:'Encode Sans Condensed';-inkscape-font-specification:EncodeSansSemiCondensed-Regular;writing-mode:lr-tb;fill:#eeeeee;fill-opacity:1;fill-rule:nonzero;stroke:none"
               id="text5493"><tspan
                 x="0"
                 y="0"
                 id="tspan5491">H</tspan></text>
          </g>
        </g>
      </g>
    </g>
  </g>
</svg>
